<?xml version="1.0" encoding="UTF-8"?>
<svg version="1.1" xmlns="http://www.w3.org/2000/svg" width="888" height="840">
<path d="M0 0 C250.90017057 0 250.90017057 0 272.1875 5.6875 C273.16468994 5.94096191 274.14187988 6.19442383 275.14868164 6.45556641 C285.39302589 9.21375455 295.24149534 12.85720113 305 17 C305.74830078 17.31694824 306.49660156 17.63389648 307.26757812 17.96044922 C340.25217903 32.17566261 370.31057279 55.61618342 391.79931641 84.39355469 C392.87822555 85.83707281 393.97512084 87.26710618 395.07421875 88.6953125 C415.89721931 116.31852217 429.86064361 148.77363901 435 183 C435.25008316 184.6315226 435.25008316 184.6315226 435.50521851 186.29600525 C437.31967812 199.64065498 437.29111421 212.89901937 437.265625 226.34765625 C437.26697694 228.89228858 437.26892184 231.43692066 437.27142334 233.98155212 C437.27435775 239.30096141 437.2703346 244.62030096 437.26074219 249.93969727 C437.25113437 255.32808066 437.25105096 260.71635314 437.26074219 266.10473633 C437.39978108 346.93596194 429.45783682 412.94006637 372 474 C371.38382813 474.65871094 370.76765625 475.31742188 370.1328125 475.99609375 C355.65901547 490.98928541 337.40412062 502.49871902 319 512 C318.3203418 512.35545898 317.64068359 512.71091797 316.94042969 513.07714844 C300.89977502 521.37403878 283.66892194 526.98112911 266.0625 530.875 C265.20124512 531.06602295 264.33999023 531.2570459 263.45263672 531.45385742 C177.44446646 549.22780451 87.82550055 535 0 535 C0 358.45 0 181.9 0 0 Z M107 106 C107 212.59 107 319.18 107 429 C213.81149212 437.64870591 213.81149212 437.64870591 300.1875 395.3125 C327.38859215 367.93215848 331.15567601 333.17681846 331.16796875 296.3671875 C331.17119058 294.08098328 331.17455531 291.79477925 331.17805481 289.50857544 C331.18401392 284.73292565 331.18589806 279.95729387 331.18530273 275.18164062 C331.18520136 269.11709767 331.19884316 263.05267242 331.21607494 256.98815727 C331.22729393 252.26927174 331.22921892 247.55041376 331.22869301 242.83151627 C331.22985867 240.59842652 331.23419903 238.36533571 331.24202538 236.13225937 C331.52577966 210.14973331 331.52577966 210.14973331 326.4375 184.8125 C326.18137939 183.99845703 325.92525879 183.18441406 325.66137695 182.34570312 C316.97500692 156.14152326 297.8610788 133.6755262 274 120 C272.86046875 119.34515625 271.7209375 118.6903125 270.546875 118.015625 C264.3674865 114.71430786 258.12873113 112.20090427 251.4375 110.1875 C250.78990723 109.99244873 250.14231445 109.79739746 249.47509766 109.59643555 C203.72380694 96.80120041 154.50682735 106 107 106 Z " fill="#000000" transform="translate(433,100)"/>
<path d="M0 0 C34.65 0 69.3 0 105 0 C105.06624215 43.9416464 105.12159383 87.88324538 105.15319599 131.82492748 C105.15694773 137.02268937 105.16083073 142.22045116 105.16479492 147.41821289 C105.16558185 148.45291369 105.16636878 149.48761449 105.16717956 150.55366986 C105.18020317 167.26705237 105.20384008 183.98040364 105.23145839 200.69376767 C105.2595976 217.86667524 105.27619419 235.03956655 105.28226548 252.21249622 C105.28636433 262.79341421 105.29926973 273.3742439 105.3237494 283.95513468 C105.33971194 291.2289513 105.3443768 298.50272284 105.34050413 305.77655566 C105.33859879 309.96164108 105.34134072 314.14657316 105.35761642 318.33163071 C105.57978253 378.53817429 89.48224067 432.86060509 47 477 C46.39881348 477.62841797 45.79762695 478.25683594 45.17822266 478.90429688 C36.35428652 488.08136814 27.3643632 496.58879259 17 504 C16.33307129 504.47888672 15.66614258 504.95777344 14.97900391 505.45117188 C-10.38434476 523.45663241 -38.32561326 535.54641175 -69 541 C-69.90411621 541.16226074 -70.80823242 541.32452148 -71.73974609 541.49169922 C-95.79530161 545.59771178 -121.88260176 545.80744497 -146 542 C-146.7842334 541.8870459 -147.5684668 541.7740918 -148.37646484 541.65771484 C-201.00222713 533.91466887 -246.53117598 502.32395784 -279 461 C-280.00071851 459.76409579 -281.00344844 458.52981847 -282.0078125 457.296875 C-287.33714387 450.73586865 -292.54838702 444.20458417 -297 437 C-295.67789709 433.9881398 -294.36610497 432.19459869 -291.796875 430.15234375 C-291.15363281 429.63542969 -290.51039063 429.11851562 -289.84765625 428.5859375 C-289.15542969 428.04195312 -288.46320313 427.49796875 -287.75 426.9375 C-287.03199219 426.36386719 -286.31398438 425.79023437 -285.57421875 425.19921875 C-283.38944659 423.45756616 -281.19646602 421.72687326 -279 420 C-278.38447266 419.51547363 -277.76894531 419.03094727 -277.13476562 418.53173828 C-274.85628025 416.73995065 -272.57627527 414.95016357 -270.29199219 413.16577148 C-265.81694329 409.66419102 -261.40219241 406.09259381 -257 402.5 C-251.48385625 397.99831947 -245.92761946 393.55670514 -240.30883789 389.18383789 C-237.0833337 386.66519266 -233.89936881 384.10479601 -230.74609375 381.49609375 C-230.02873047 380.90441406 -229.31136719 380.31273437 -228.57226562 379.703125 C-227.18237145 378.55356934 -225.79671267 377.39886718 -224.41601562 376.23828125 C-223.78244141 375.71492188 -223.14886719 375.1915625 -222.49609375 374.65234375 C-221.94107178 374.18820068 -221.3860498 373.72405762 -220.81420898 373.24584961 C-218.65532336 371.76330442 -216.45276201 370.89685263 -214 370 C-213.63874023 370.56283691 -213.27748047 371.12567383 -212.90527344 371.70556641 C-205.66929747 382.92064349 -198.3394048 393.66135536 -189.33007812 403.52587891 C-188.07045468 404.92191532 -186.85402607 406.35657509 -185.640625 407.79296875 C-174.72206758 420.58936317 -161.12614256 427.42593147 -145.4375 432.75 C-144.57527832 433.04398682 -143.71305664 433.33797363 -142.82470703 433.64086914 C-131.77955199 437.25391692 -121.35540873 438.36412346 -109.75 438.3125 C-107.82619507 438.30621582 -107.82619507 438.30621582 -105.86352539 438.29980469 C-96.8700737 438.19242019 -88.66342793 437.55914559 -80 435 C-78.51886719 434.59974609 -78.51886719 434.59974609 -77.0078125 434.19140625 C-63.32901751 430.10953772 -50.91012285 423.14131547 -40 414 C-38.99195313 413.15566406 -37.98390625 412.31132812 -36.9453125 411.44140625 C-16.28993154 393.58703254 -3.30920784 368.26745856 -1 341 C-0.84738285 336.36420785 -0.84526181 331.73030196 -0.84178162 327.09228516 C-0.8372103 325.67882238 -0.83220945 324.26536094 -0.82681805 322.85190105 C-0.81329237 318.9820421 -0.80583481 315.11219188 -0.79939139 311.24231553 C-0.79136285 307.06381096 -0.77767357 302.88532443 -0.76467896 298.70683289 C-0.74295093 291.47201098 -0.72479306 284.23718722 -0.70907402 277.00234985 C-0.68634187 266.54204585 -0.65820372 256.08176186 -0.62875474 245.62147486 C-0.5811198 228.64951422 -0.53784453 211.67754539 -0.49731445 194.70556641 C-0.45793866 178.2208594 -0.41650745 161.73615967 -0.37231445 145.25146484 C-0.36822804 143.72676929 -0.36822804 143.72676929 -0.36405908 142.1712718 C-0.35037926 137.07186849 -0.33665906 131.97246528 -0.32291877 126.87306213 C-0.20901837 84.58205571 -0.10299862 42.29103466 0 0 Z " fill="#000000" transform="translate(297,95)"/>
</svg>
