<?xml version="1.0" encoding="UTF-8"?>
<svg version="1.1" xmlns="http://www.w3.org/2000/svg" width="2047" height="416">
<path d="M0 0 C20.13 0 40.26 0 61 0 C61.04519673 28.44264873 61.08201823 56.88526825 61.10362434 85.3279438 C61.11392435 98.53521132 61.12796029 111.74245489 61.15087891 124.94970703 C61.17085184 136.46497517 61.1837257 147.98022596 61.18817699 159.49551094 C61.19077775 165.58925454 61.19686409 171.68294852 61.21146011 177.77667618 C61.22510572 183.52052744 61.22920859 189.26430897 61.22621536 195.0081749 C61.22676241 197.10829803 61.23069804 199.20842367 61.23841095 201.30853271 C61.35397211 234.41769321 53.63504738 264.85369419 29.921875 289.046875 C29.42623047 289.54509766 28.93058594 290.04332031 28.41992188 290.55664062 C27.10920352 291.88899394 25.841421 293.26322485 24.578125 294.640625 C4.66224264 315.89314376 -24.4072614 327.16764801 -53.16015625 328.21875 C-87.35421343 329.01972456 -116.37028083 318.70764715 -141.5703125 295.359375 C-163.52950974 274.03565292 -177.3642647 246.81740006 -178.3359375 215.87109375 C-178.77208892 179.89099834 -169.79469448 150.56042742 -144.66064453 124.2578125 C-129.20635399 108.52310932 -111.29606716 97.89943518 -90 92 C-88.86433594 91.6803125 -87.72867187 91.360625 -86.55859375 91.03125 C-77.42025007 88.9019272 -68.36451593 88.69256172 -59 88.625 C-57.76628662 88.61106201 -56.53257324 88.59712402 -55.26147461 88.58276367 C-45.58057202 88.63196369 -37.83737482 90.15549222 -28 92 C-28 113.45 -28 134.9 -28 157 C-31.75855962 156.24828808 -34.5813778 155.45389877 -38.0625 154.0625 C-53.12256182 148.54584634 -68.10491485 149.00352701 -83 155 C-98.32845438 162.3183887 -109.16396029 175.20165812 -115 191 C-119.39569222 205.21731702 -117.57567886 220.90031505 -111.4921875 234.328125 C-103.63054462 248.58877953 -91.98601162 259.24986435 -76.5 264.5 C-60.80382768 268.65262811 -45.45651788 267.49597223 -31 260 C-17.59227531 252.02152812 -7.02573841 240.26454584 -2.47265625 225.09765625 C-1.17752502 219.34984244 -0.8487182 213.90426492 -0.84178162 208.04031372 C-0.83684364 207.14905631 -0.83190566 206.2577989 -0.82681805 205.33953369 C-0.8114855 202.35933288 -0.80309393 199.37915354 -0.79467773 196.39892578 C-0.78509588 194.26013501 -0.77508561 192.12134612 -0.76467896 189.9825592 C-0.73765719 184.17939262 -0.71663283 178.37621793 -0.69667697 172.57302332 C-0.67480061 166.50715312 -0.64741998 160.44130785 -0.62062073 154.37545776 C-0.57071618 142.89027302 -0.52576903 131.40507444 -0.48259836 119.91986263 C-0.43320688 106.84377683 -0.37829583 93.76771605 -0.32291877 80.69165444 C-0.20913307 53.79445848 -0.10301522 26.89723952 0 0 Z " fill="#000000" transform="translate(1290,25)"/>
<path d="M0 0 C1.21558594 0.32871094 2.43117188 0.65742187 3.68359375 0.99609375 C33.84758289 10.06726218 59.25470845 32.02066092 74.22265625 59.5078125 C87.19465767 84.99565705 88.32370557 109.99049882 88.20278788 138.06622744 C88.19009747 141.52146872 88.18909586 144.97671532 88.18673706 148.43197632 C88.18057514 154.94440624 88.16423771 161.45676724 88.14403808 167.96916711 C88.11929332 176.12786891 88.10849907 184.28658242 88.09765625 192.4453125 C88.0783014 206.96359505 88.03821715 221.4817277 88 236 C67.87 236 47.74 236 27 236 C26.96261719 226.81542969 26.92523437 217.63085938 26.88671875 208.16796875 C26.85643238 202.33917779 26.82540077 196.51040647 26.79101562 190.68164062 C26.73661141 181.43597218 26.68519497 172.19035824 26.65356445 162.94458008 C26.63050991 156.20970877 26.59702946 149.47498153 26.55129844 142.74022466 C26.52746612 139.17789665 26.50867223 135.61571044 26.50238609 132.05330467 C26.49515321 128.06552385 26.46463234 124.07823317 26.43237305 120.09057617 C26.43380814 118.92387894 26.43524323 117.7571817 26.4367218 116.55513 C26.2592564 100.9779436 20.7440178 86.45029785 10 75 C-2.21415631 63.28217866 -17.29267147 58.17717209 -34 58 C-50.51901777 59.04330639 -64.1505871 65.76587491 -75.6875 77.5 C-83.02069494 86.04660129 -89.19314882 97.63392247 -90 109 C-90.07992188 110.0415625 -90.15984375 111.083125 -90.2421875 112.15625 C-90.8893028 129.05737907 -85.70051584 143.16385072 -74.9375 156.1875 C-63.61007087 168.13034123 -49.10648692 174.33192249 -32.6875 175.1015625 C-23.37061223 174.8449533 -14.00572471 173.12677504 -5.69921875 168.76953125 C-4 168 -4 168 -1 168 C-1 189.12 -1 210.24 -1 232 C-31.65271023 239.66317756 -63.82190379 237.05454598 -91.53515625 221.1328125 C-118.89835756 204.67385831 -139.67376283 178.53203314 -148.2109375 147.734375 C-155.0617731 115.31160851 -152.1411018 80.96983709 -134.09619141 52.66601562 C-115.94521948 25.07977233 -89.012561 5.25323909 -56.5625 -1.8125 C-38.78983453 -4.96243487 -17.38386498 -4.92975275 0 0 Z " fill="#000000" transform="translate(1946,117)"/>
<path d="M0 0 C1.21558594 0.32871094 2.43117188 0.65742187 3.68359375 0.99609375 C33.84758289 10.06726218 59.25470845 32.02066092 74.22265625 59.5078125 C87.19465767 84.99565705 88.32370557 109.99049882 88.20278788 138.06622744 C88.19009747 141.52146872 88.18909586 144.97671532 88.18673706 148.43197632 C88.18057514 154.94440624 88.16423771 161.45676724 88.14403808 167.96916711 C88.11929332 176.12786891 88.10849907 184.28658242 88.09765625 192.4453125 C88.0783014 206.96359505 88.03821715 221.4817277 88 236 C67.87 236 47.74 236 27 236 C26.96261719 226.81542969 26.92523437 217.63085938 26.88671875 208.16796875 C26.85643238 202.33917779 26.82540077 196.51040647 26.79101562 190.68164062 C26.73661141 181.43597218 26.68519497 172.19035824 26.65356445 162.94458008 C26.63050991 156.20970877 26.59702946 149.47498153 26.55129844 142.74022466 C26.52746612 139.17789665 26.50867223 135.61571044 26.50238609 132.05330467 C26.49515321 128.06552385 26.46463234 124.07823317 26.43237305 120.09057617 C26.43380814 118.92387894 26.43524323 117.7571817 26.4367218 116.55513 C26.2592564 100.9779436 20.7440178 86.45029785 10 75 C-2.21415631 63.28217866 -17.29267147 58.17717209 -34 58 C-50.51901777 59.04330639 -64.1505871 65.76587491 -75.6875 77.5 C-83.02069494 86.04660129 -89.19314882 97.63392247 -90 109 C-90.07992188 110.0415625 -90.15984375 111.083125 -90.2421875 112.15625 C-90.8893028 129.05737907 -85.70051584 143.16385072 -74.9375 156.1875 C-63.61007087 168.13034123 -49.10648692 174.33192249 -32.6875 175.1015625 C-23.37061223 174.8449533 -14.00572471 173.12677504 -5.69921875 168.76953125 C-4 168 -4 168 -1 168 C-1 189.12 -1 210.24 -1 232 C-31.65271023 239.66317756 -63.82190379 237.05454598 -91.53515625 221.1328125 C-118.89835756 204.67385831 -139.67376283 178.53203314 -148.2109375 147.734375 C-155.0617731 115.31160851 -152.1411018 80.96983709 -134.09619141 52.66601562 C-115.94521948 25.07977233 -89.012561 5.25323909 -56.5625 -1.8125 C-38.78983453 -4.96243487 -17.38386498 -4.92975275 0 0 Z " fill="#000000" transform="translate(1521,117)"/>
<path d="M0 0 C1.21558594 0.32871094 2.43117188 0.65742187 3.68359375 0.99609375 C33.84758289 10.06726218 59.25470845 32.02066092 74.22265625 59.5078125 C87.19465767 84.99565705 88.32370557 109.99049882 88.20278788 138.06622744 C88.19009747 141.52146872 88.18909586 144.97671532 88.18673706 148.43197632 C88.18057514 154.94440624 88.16423771 161.45676724 88.14403808 167.96916711 C88.11929332 176.12786891 88.10849907 184.28658242 88.09765625 192.4453125 C88.0783014 206.96359505 88.03821715 221.4817277 88 236 C67.87 236 47.74 236 27 236 C26.96261719 226.81542969 26.92523438 217.63085938 26.88671875 208.16796875 C26.85643238 202.33917779 26.82540077 196.51040647 26.79101562 190.68164062 C26.73661141 181.43597218 26.68519497 172.19035824 26.65356445 162.94458008 C26.63050991 156.20970877 26.59702946 149.47498153 26.55129844 142.74022466 C26.52746612 139.17789665 26.50867223 135.61571044 26.50238609 132.05330467 C26.49515321 128.06552385 26.46463234 124.07823317 26.43237305 120.09057617 C26.43380814 118.92387894 26.43524323 117.7571817 26.4367218 116.55513 C26.2592564 100.9779436 20.7440178 86.45029785 10 75 C-2.21415631 63.28217866 -17.29267147 58.17717209 -34 58 C-50.51901777 59.04330639 -64.1505871 65.76587491 -75.6875 77.5 C-83.02069494 86.04660129 -89.19314882 97.63392247 -90 109 C-90.07992187 110.0415625 -90.15984375 111.083125 -90.2421875 112.15625 C-90.8893028 129.05737907 -85.70051584 143.16385072 -74.9375 156.1875 C-63.61007087 168.13034123 -49.10648692 174.33192249 -32.6875 175.1015625 C-23.37061223 174.8449533 -14.00572471 173.12677504 -5.69921875 168.76953125 C-4 168 -4 168 -1 168 C-1 189.12 -1 210.24 -1 232 C-31.65271023 239.66317756 -63.82190379 237.05454598 -91.53515625 221.1328125 C-118.89835756 204.67385831 -139.67376283 178.53203314 -148.2109375 147.734375 C-155.0617731 115.31160851 -152.1411018 80.96983709 -134.09619141 52.66601562 C-115.94521948 25.07977233 -89.012561 5.25323909 -56.5625 -1.8125 C-38.78983453 -4.96243487 -17.38386498 -4.92975275 0 0 Z " fill="#000000" transform="translate(427,117)"/>
<path d="M0 0 C10.28698215 8.68887396 21.00108783 18.7879288 27 31 C25.84841081 35.81199769 22.58837974 39.27594721 19.5 43 C18.40264593 44.34684219 17.30630653 45.69451166 16.2109375 47.04296875 C15.39254395 48.047229 15.39254395 48.047229 14.55761719 49.07177734 C12.36638153 51.78437597 10.24368327 54.54272635 8.125 57.3125 C-0.43347614 68.49951363 -9.10250905 79.60125546 -17.81396484 90.66943359 C-27.28960082 102.71707729 -36.6733835 114.83671673 -46 127 C-49.86225539 125.32198127 -52.98678695 122.79660053 -56.25 120.1875 C-56.8584375 119.70539063 -57.466875 119.22328125 -58.09375 118.7265625 C-63.4318943 114.48425677 -68.71814015 110.17802327 -74.00097656 105.8671875 C-80.59910866 100.49069296 -87.28800739 95.23325674 -94 90 C-92.56997559 85.70992676 -90.45268442 82.90119345 -87.5 79.5 C-83.90089908 75.29264644 -80.416167 71.03075833 -77.0625 66.625 C-73.04405903 61.34954919 -68.96827813 56.12380522 -64.84204102 50.93212891 C-61.76508451 47.04039479 -58.85894389 43.05487554 -56 39 C-64.56715987 33.28856009 -77.25842436 34.59368192 -87 36 C-103.12190362 39.48435319 -116.39058943 48.56708909 -125.46875 62.3984375 C-133.96112175 76.82680379 -136.31587748 91.8185968 -132.375 108.1875 C-128.54233931 122.70143131 -120.23627427 134.1862476 -107.67578125 142.46875 C-93.50931192 150.57569303 -78.33598253 153.17311085 -62.296875 150.34765625 C-52.11059166 147.48122628 -42.79277352 142.14337573 -35 135 C-30.14543444 137.69164031 -25.9111184 141.07757845 -21.5625 144.5 C-20.37140625 145.43223389 -20.37140625 145.43223389 -19.15625 146.38330078 C-16.76878501 148.25293879 -14.38428458 150.12630887 -12 152 C-10.68640209 153.02890656 -9.37261568 154.05757251 -8.05859375 155.0859375 C-5.74988909 156.89311417 -3.44715337 158.70748451 -1.1484375 160.52734375 C0.91031093 162.15450066 2.98626805 163.74032525 5.0859375 165.31640625 C6.00632812 166.01636719 6.92671875 166.71632813 7.875 167.4375 C8.67679688 168.03433594 9.47859375 168.63117188 10.3046875 169.24609375 C12 171 12 171 12 175 C-3.84984799 195.92179934 -32.75594274 208.23690782 -57.97045898 212.22631836 C-89.91838755 216.52204048 -121.81852211 209.24182102 -147.62109375 189.6953125 C-167.97441115 173.72063254 -183.17577998 153.44162554 -190.6875 128.5625 C-190.89020508 127.89492676 -191.09291016 127.22735352 -191.30175781 126.53955078 C-199.73639807 97.18728429 -196.64567432 63.55720251 -182.23510742 36.57202148 C-166.59815638 8.64252801 -141.35855539 -12.59106009 -110.72265625 -21.96875 C-109.49417969 -22.3090625 -108.26570312 -22.649375 -107 -23 C-105.86433594 -23.3196875 -104.72867188 -23.639375 -103.55859375 -23.96875 C-67.75510161 -32.31131127 -28.4291778 -23.16605014 0 0 Z " fill="#000000" transform="translate(864,140)"/>
<path d="M0 0 C89.69463869 0 89.69463869 0 111 10 C111.60618164 10.2779541 112.21236328 10.5559082 112.83691406 10.84228516 C139.70485709 23.3444205 162.14001011 47.74984293 172.60571289 75.4675293 C178.18479921 91.11411318 180.16432955 106.43986922 180.11352539 122.97705078 C180.11367142 124.23672165 180.11381744 125.49639252 180.1139679 126.79423523 C180.1142525 130.21710223 180.10841067 133.63993353 180.10139394 137.0627923 C180.09510389 140.65155 180.09455216 144.24030869 180.09336853 147.82907104 C180.09027178 154.61090357 180.08208089 161.39271979 180.07201904 168.17454517 C180.05870589 177.34872037 180.05334461 186.52290008 180.04751682 195.69708252 C180.03813974 210.13140053 180.01820982 224.56568417 180 239 C159.87 239 139.74 239 119 239 C118.97421875 229.76644531 118.9484375 220.53289062 118.921875 211.01953125 C118.89669535 205.15427594 118.87051536 199.28905304 118.83984375 193.42382812 C118.79139311 184.1234564 118.74691453 174.82319248 118.72900391 165.52270508 C118.71593755 158.74749989 118.68884706 151.97251543 118.64538693 145.1974346 C118.62288317 141.61487858 118.60708258 138.03259367 118.60811615 134.44996071 C118.60900995 130.43614062 118.578573 126.42311126 118.54589844 122.40942383 C118.5509288 121.24056641 118.55595917 120.07170898 118.56114197 118.86743164 C118.36294275 103.03021675 112.45033073 88.81659726 101.53125 77.3515625 C90.68454323 67.274838 77.72530687 61.99832589 63 61 C62.01 60.505 62.01 60.505 61 60 C61 119.07 61 178.14 61 239 C40.87 239 20.74 239 0 239 C0 160.13 0 81.26 0 0 Z " fill="#000000" transform="translate(912,114)"/>
<path d="M0 0 C20.79 0 41.58 0 63 0 C63.06789044 26.38326847 63.12308245 52.7664655 63.15543652 79.14979935 C63.17086269 91.40181877 63.19187037 103.65377979 63.22631836 115.90576172 C63.25635144 126.59266634 63.27560583 137.27952864 63.28226548 147.96647429 C63.28615431 153.6177811 63.29520363 159.26896691 63.31719017 164.92023468 C63.33777578 170.25538434 63.3437899 175.59036485 63.33932304 180.92555046 C63.34013849 182.86835339 63.34597112 184.81116285 63.35761642 186.75393105 C63.45149852 203.24562209 62.47093846 220.01953008 56.875 235.6875 C56.5756958 236.54923828 56.2763916 237.41097656 55.96801758 238.29882812 C50.89962053 252.34593519 43.68557422 264.66874813 34 276 C33.56429687 276.51401367 33.12859375 277.02802734 32.6796875 277.55761719 C11.67948042 302.07320981 -16.83115799 317.37822684 -49 321 C-54.08707679 321.28565425 -59.15569064 321.33423958 -64.25 321.3125 C-65.26913986 321.30976578 -65.26913986 321.30976578 -66.30886841 321.30697632 C-76.85228418 321.2594423 -86.77075014 320.67367695 -97 318 C-97.64855957 317.83902832 -98.29711914 317.67805664 -98.96533203 317.51220703 C-128.47185692 310.04047451 -153.12565123 288.72415403 -170.625 264.4375 C-171.06344238 263.8293042 -171.50188477 263.2211084 -171.95361328 262.59448242 C-175 258.25716015 -175 258.25716015 -175 256 C-173.0360829 254.31532736 -171.06191296 252.74490234 -169 251.1875 C-167.70732004 250.1927216 -166.41569367 249.19657295 -165.125 248.19921875 C-164.44695312 247.67634277 -163.76890625 247.1534668 -163.0703125 246.61474609 C-159.67027571 243.96287778 -156.33685438 241.23063474 -153 238.5 C-145.73867784 232.57392096 -138.40581155 226.74450788 -131 221 C-129.87851563 220.10667969 -129.87851563 220.10667969 -128.734375 219.1953125 C-127 218 -127 218 -125 218 C-123.91142134 219.55898938 -122.90566332 221.17600644 -121.9375 222.8125 C-118.10859297 228.99765752 -113.76075606 234.51011914 -109 240 C-108.45988281 240.66 -107.91976562 241.32 -107.36328125 242 C-98.98116226 251.45891513 -83.47834769 257.32305012 -71.04248047 258.12646484 C-51.82205974 258.8251465 -35.78331406 254.95327131 -21 242 C-20.38511719 241.46761719 -19.77023438 240.93523437 -19.13671875 240.38671875 C-9.62847835 231.55312068 -3.03175904 218.80999995 -1 206 C-0.8981356 203.18468002 -0.84528073 200.39350667 -0.84178162 197.57817078 C-0.83684364 196.73268687 -0.83190566 195.88720296 -0.82681805 195.01609832 C-0.81146758 192.18480643 -0.80308905 189.35353717 -0.79467773 186.5222168 C-0.78509729 184.49194642 -0.77508711 182.46167804 -0.76467896 180.43141174 C-0.73764191 174.91949964 -0.71662581 169.40757898 -0.69667697 163.89563727 C-0.67481005 158.13539048 -0.6474248 152.37517001 -0.62062073 146.61494446 C-0.57070342 135.70700745 -0.525761 124.79905582 -0.48259836 113.89109021 C-0.43321779 101.47281345 -0.37830269 89.0545631 -0.32291877 76.63631189 C-0.20911348 51.09089802 -0.10300188 25.54545987 0 0 Z " fill="#000000" transform="translate(191,41)"/>
<path d="M0 0 C19.8 0 39.6 0 60 0 C60 29.7 60 59.4 60 90 C79.8 90 99.6 90 120 90 C120 109.8 120 129.6 120 150 C100.2 150 80.4 150 60 150 C60.1546875 158.5078125 60.1546875 158.5078125 60.3125 167.1875 C60.33739502 168.94860107 60.36229004 170.70970215 60.38793945 172.52416992 C60.76803247 191.74181653 65.18371086 207.90218772 79 222 C91.60756535 232.68589941 105.34889671 238.29152292 122 238 C130.10593222 237.22367356 138.04561394 235.57528699 145.30078125 231.76953125 C147 231 147 231 150 231 C150 252.12 150 273.24 150 295 C119.3532519 302.66168703 87.15981022 300.06297101 59.45703125 284.125 C28.80516554 265.6811352 10.03270996 237.6933469 1.47729492 203.43017578 C0.24844468 197.17341093 -0.14569237 191.06550893 -0.12025452 184.7109375 C-0.12110894 183.9159765 -0.12196337 183.12101549 -0.12284368 182.30196476 C-0.12448024 179.65961965 -0.11900722 177.01733918 -0.11352539 174.375 C-0.1132431 172.47236635 -0.11340207 170.56973259 -0.1139679 168.667099 C-0.11425423 163.51690094 -0.10838397 158.36672629 -0.10139394 153.21653366 C-0.09513313 147.82868316 -0.09455444 142.44083209 -0.09336853 137.05297852 C-0.09026326 126.85698279 -0.0820607 116.66099782 -0.07201904 106.46500683 C-0.06083294 94.85440279 -0.05534116 83.24379824 -0.05032361 71.63319016 C-0.03987742 47.75545277 -0.02154192 23.87773013 0 0 Z " fill="#000000" transform="translate(1633,54)"/>
<path d="M0 0 C0 19.8 0 39.6 0 60 C-6.27 61.32 -12.54 62.64 -19 64 C-36.00567318 71.38771048 -47.45205103 80.96596578 -55.02734375 98.234375 C-57.84762688 106.25349328 -58.30344918 113.38167995 -58.31884766 121.84179688 C-58.33391609 123.74549545 -58.33391609 123.74549545 -58.34928894 125.68765259 C-58.37644274 129.14573363 -58.3916946 132.60377427 -58.40471697 136.06193352 C-58.42041197 139.68411738 -58.44718167 143.30621951 -58.4727478 146.92834473 C-58.51942335 153.77749548 -58.55622154 160.6266618 -58.58942068 167.47588968 C-58.63489188 176.7382164 -58.69572346 186.00044163 -58.75566864 195.26268387 C-58.84962143 209.84173822 -58.92313974 224.42082231 -59 239 C-79.13 239 -99.26 239 -120 239 C-120.08060607 207.25464338 -120.08060607 207.25464338 -120.09765625 193.87695312 C-120.1094897 184.6667252 -120.12334525 175.45653406 -120.15087891 166.24633789 C-120.17092834 159.53641783 -120.1837436 152.82652783 -120.18817699 146.11657864 C-120.19076499 142.56975616 -120.19676792 139.0230196 -120.21146011 135.4762249 C-120.32497107 106.97227035 -120.32497107 106.97227035 -118 95 C-117.85509125 94.24972031 -117.7101825 93.49944061 -117.56088257 92.72642517 C-110.88905528 61.84566592 -91.30748348 34.96680565 -65.01220703 17.67114258 C-44.58863695 4.71460797 -24.19058363 0 0 0 Z " fill="#000000" transform="translate(660,114)"/>
</svg>
